<svg width="400" height="400" viewBox="0 0 400 400" fill="none" xmlns="http://www.w3.org/2000/svg">
<circle cx="200" cy="200" r="200" fill="#DCEEFF"/>
<path d="M122.938 153.562C122.938 136.649 136.649 122.938 153.563 122.938H245.438C262.351 122.938 276.062 136.649 276.062 153.563V245.438C276.062 262.351 262.351 276.062 245.437 276.062H153.562C136.649 276.062 122.938 262.351 122.938 245.437V153.562Z" stroke="#7B1AF7" stroke-width="9.1875" stroke-linecap="round" stroke-dasharray="30.62 30.62"/>
<path d="M219 173.851C218.959 181.437 215.514 188.66 208.664 195.52C202.057 202.137 198.531 208.594 198.085 214.889H191.822C191.822 209.32 192.572 204.7 194.072 201.028C195.612 197.315 198.247 192.998 201.976 188.075C203.841 185.613 205.138 183.434 205.867 181.538C206.637 179.641 207.022 177.321 207.022 174.577C207.022 171.147 206.07 168.443 204.165 166.466C202.3 164.449 199.605 163.44 196.078 163.44C193.403 163.44 188.803 164.247 182.277 165.861L181 155.934C186.756 153.311 191.924 152 196.504 152C203.8 152 209.373 153.876 213.224 157.629C217.075 161.341 219 166.749 219 173.851ZM202.949 237.042C202.949 239.907 202.118 242.126 200.456 243.7C198.835 245.233 196.869 246 194.558 246C192.248 246 190.221 245.213 188.478 243.639C186.735 242.025 185.864 239.826 185.864 237.042C185.864 234.217 186.675 232.038 188.296 230.505C189.958 228.931 191.924 228.144 194.194 228.144C196.545 228.144 198.591 228.951 200.334 230.565C202.077 232.139 202.949 234.298 202.949 237.042Z" fill="#354E66"/>
</svg>
