<svg width="400" height="400" viewBox="0 0 400 400" fill="none" xmlns="http://www.w3.org/2000/svg">
<circle cx="200" cy="200" r="200" fill="#DCEEFF"/>
<path d="M236.358 164.587C236.358 162.896 234.987 161.525 233.296 161.525L205.733 161.525C204.042 161.525 202.671 162.896 202.671 164.587C202.671 166.279 204.042 167.65 205.733 167.65H230.233V192.15C230.233 193.841 231.604 195.212 233.296 195.212C234.987 195.212 236.358 193.841 236.358 192.15L236.358 164.587ZM174.837 227.376L235.461 166.753L231.13 162.422L170.506 223.045L174.837 227.376Z" fill="#354E66"/>
<path d="M122.938 153.562C122.938 136.649 136.649 122.938 153.563 122.938H245.438C262.351 122.938 276.062 136.649 276.062 153.563V245.438C276.062 262.351 262.351 276.062 245.437 276.062H153.562C136.649 276.062 122.938 262.351 122.938 245.437V153.562Z" stroke="#7B1AF7" stroke-width="9.1875" stroke-linecap="round" stroke-dasharray="30.62 30.62"/>
</svg>
